<svg width="58" height="56" viewBox="0 0 58 56" fill="none" xmlns="http://www.w3.org/2000/svg">
<path d="M51.931 4.5593L48.0862 13.0446C47.9099 13.4335 47.8187 13.8557 47.8187 14.2827V52.1315C47.8187 53.2361 48.7142 54.1315 49.8187 54.1315H54.9541C56.0587 54.1315 56.9541 53.2361 56.9541 52.1315V14.2827C56.9541 13.8557 56.8629 13.4335 56.6867 13.0446L52.8418 4.5593C52.6644 4.16778 52.1084 4.16778 51.931 4.5593Z" stroke="#D1B06B" stroke-width="2"/>
<path d="M47.8187 14.2827H52.9574H56.9541" stroke="#D1B06B" stroke-width="2"/>
<rect x="6.83411" y="24.3362" width="28.0038" height="2.33365" rx="1.16683" fill="#D1B06B"/>
<rect x="8.16772" y="8.16748" width="10.1678" height="7.83413" rx="1.5" stroke="#D1B06B" stroke-width="2"/>
<rect x="6.83411" y="36.0046" width="28.0038" height="2.33365" rx="1.16683" fill="#D1B06B"/>
<rect x="6.83411" y="41.8386" width="17.5024" height="2.33365" rx="1.16683" fill="#D1B06B"/>
<rect x="6.83411" y="30.1704" width="28.0038" height="2.33365" rx="1.16683" fill="#D1B06B"/>
<path d="M47.8187 49.0225H56.9541" stroke="#D1B06B" stroke-width="2"/>
<path d="M1 7.99975V47.3846C1 51.2506 4.13401 54.3846 8 54.3846H34.2603C38.1263 54.3846 41.2603 51.2506 41.2603 47.3846V15.728C41.2603 13.7405 40.4154 11.8467 38.9365 10.519L30.3278 2.7908C29.0432 1.63762 27.3778 0.999756 25.6516 0.999756H8C4.13401 0.999756 1 4.13376 1 7.99975Z" stroke="#D1B06B" stroke-width="2"/>
<path d="M25.9808 1.2168V10.8885C25.9808 13.0977 27.7717 14.8885 29.9808 14.8885H40.2902" stroke="#D1B06B" stroke-width="2" stroke-linecap="round"/>
</svg>
